<svg width="50" height="52" viewBox="0 0 50 52" fill="none" xmlns="http://www.w3.org/2000/svg">
<path d="M22.5084 45.6996C18.0567 45.6996 13.7049 44.3795 10.0034 41.9062C6.30193 39.4329 3.41697 35.9176 1.71335 31.8047C0.00974187 27.6918 -0.435986 23.1661 0.432508 18.7999C1.301 14.4337 3.4447 10.4231 6.59256 7.27521C9.74043 4.12734 13.7511 1.98361 18.1173 1.11512C22.4835 0.246627 27.0092 0.692371 31.1221 2.39598C35.235 4.0996 38.7503 6.98456 41.2236 10.6861C43.6968 14.3876 45.0169 18.7393 45.0169 23.1911C45.0102 29.1586 42.6366 34.8798 38.4169 39.0995C34.1972 43.3192 28.476 45.6928 22.5084 45.6996V45.6996ZM22.5084 1.75446C18.2687 1.75446 14.1241 3.0117 10.5989 5.36719C7.07368 7.72267 4.3261 11.0706 2.70361 14.9876C1.08112 18.9047 0.656595 23.2149 1.48373 27.3732C2.31087 31.5315 4.35251 35.3511 7.35048 38.3491C10.3484 41.347 14.1681 43.3887 18.3264 44.2158C22.4847 45.0429 26.7949 44.6184 30.7119 42.996C34.6289 41.3735 37.9769 38.6259 40.3324 35.1006C42.6878 31.5754 43.9451 27.4309 43.9451 23.1911C43.9387 17.5077 41.6781 12.0589 37.6594 8.04019C33.6406 4.02143 28.1918 1.76088 22.5084 1.75446V1.75446Z" fill="#FAFBF9"/>
<path d="M29.4723 11.6826C30.8355 11.6826 31.935 12.7249 32 13.9514V33.6826L29.4045 31.599L27.9792 30.3725L26.424 29.091L27.0736 31.1123H13.4627C12.1034 31.1123 11 30.136 11 28.8426V13.956C11 12.7295 12.1053 11.6854 13.4676 11.6854H29.4655L29.4723 11.6826ZM23.5405 16.892H23.5114L23.3155 17.0754C25.3255 17.6254 26.2979 18.4843 26.2979 18.4843C25.0026 17.872 23.8352 17.5658 22.6679 17.442C21.8243 17.3183 20.9808 17.3834 20.2682 17.442H20.0742C19.6185 17.442 18.649 17.6254 17.3497 18.1158C16.8969 18.3019 16.6371 18.4238 16.6371 18.4238C16.6371 18.4238 17.6086 17.5053 19.7494 17.0149L19.6185 16.8911C19.6185 16.8911 17.9974 16.8325 16.2473 18.0553C16.2473 18.0553 14.4973 20.9373 14.4973 24.4903C14.4973 24.4903 15.4668 26.0853 18.1264 26.1458C18.1264 26.1458 18.5142 25.6572 18.9069 25.2273C17.4137 24.7983 16.832 23.9403 16.832 23.9403C16.832 23.9403 16.9619 24.0008 17.1568 24.1236H17.215C17.2441 24.1236 17.2576 24.1374 17.2731 24.1511V24.1566C17.2887 24.1713 17.3022 24.1841 17.3313 24.1841C17.6513 24.3088 17.9712 24.4316 18.233 24.5508C18.6848 24.736 19.2656 24.9202 19.9783 25.0421C20.88 25.1659 21.9135 25.2255 23.0906 25.0421C23.6723 24.9184 24.2541 24.7974 24.8358 24.5517C25.214 24.3684 25.6793 24.185 26.1903 23.8761C26.1903 23.8761 25.6086 24.7341 24.0524 25.1631C24.3724 25.5903 24.8232 26.0798 24.8232 26.0798C27.4837 26.0248 28.5173 24.4298 28.5755 24.4976C28.5755 20.9501 26.8157 18.0626 26.8157 18.0626C25.2304 16.9498 23.747 16.9076 23.4852 16.9076L23.5395 16.8893L23.5405 16.892ZM23.7034 20.9373C24.385 20.9373 24.9347 21.4873 24.9347 22.161C24.9347 22.8394 24.3821 23.3894 23.7034 23.3894C23.0247 23.3894 22.472 22.8394 22.472 22.1665C22.4739 21.4882 23.0276 20.94 23.7034 20.94V20.9373ZM19.2986 20.9373C19.9773 20.9373 20.5261 21.4873 20.5261 22.161C20.5261 22.8394 19.9734 23.3894 19.2947 23.3894C18.616 23.3894 18.0633 22.8394 18.0633 22.1665C18.0633 21.4882 18.616 20.94 19.2947 20.94L19.2986 20.9373Z" fill="#FAFBF9"/>
<path d="M40.9273 51.5802C45.938 51.5802 50 47.5182 50 42.5075C50 37.4968 45.938 33.4348 40.9273 33.4348C35.9166 33.4348 31.8546 37.4968 31.8546 42.5075C31.8546 47.5182 35.9166 51.5802 40.9273 51.5802Z" fill="#3F3D56"/>
<path d="M39.8041 40.24C39.7948 40.3938 39.8164 40.5478 39.8676 40.6931C39.9188 40.8384 39.9986 40.9719 40.1023 41.0859C40.2064 41.1885 40.3306 41.2684 40.4671 41.3207C40.6036 41.3729 40.7495 41.3964 40.8955 41.3895C41.0433 41.3965 41.1908 41.3728 41.329 41.3201C41.4672 41.2673 41.593 41.1865 41.6985 41.0828C41.8028 40.9685 41.8832 40.8344 41.9349 40.6885C41.9866 40.5426 42.0087 40.3879 41.9997 40.2333C42.0068 40.0841 41.9842 39.935 41.9331 39.7947C41.882 39.6543 41.8035 39.5256 41.7021 39.4159C41.5993 39.3129 41.4762 39.2325 41.3406 39.1797C41.205 39.1269 41.0599 39.1029 40.9146 39.1092C40.7655 39.102 40.6167 39.1258 40.4774 39.1792C40.338 39.2325 40.2113 39.3143 40.1053 39.4192C40.003 39.5291 39.9237 39.6583 39.872 39.7993C39.8203 39.9402 39.7972 40.09 39.8041 40.24V40.24ZM39.6411 44.2973C39.6155 44.7199 39.7487 45.1367 40.0146 45.4662C40.1292 45.6006 40.2722 45.708 40.4332 45.7807C40.5943 45.8533 40.7694 45.8894 40.946 45.8863C41.1171 45.8901 41.2869 45.8558 41.4432 45.7859C41.5994 45.7161 41.7382 45.6123 41.8494 45.4822C42.1082 45.151 42.2355 44.7358 42.2068 44.3164C42.226 43.927 42.096 43.5449 41.8433 43.2479C41.7287 43.1169 41.5866 43.0127 41.4272 42.9428C41.2678 42.8729 41.0949 42.8389 40.9209 42.8433C40.7345 42.8309 40.548 42.8666 40.3793 42.947C40.2107 43.0274 40.0655 43.1498 39.9577 43.3024C39.7515 43.5931 39.6408 43.9408 39.6411 44.2973V44.2973ZM39.4406 42.0681C39.0305 41.9085 38.682 41.6221 38.4459 41.2507C38.2394 40.9067 38.132 40.5124 38.1356 40.1112C38.1258 39.7852 38.1847 39.4609 38.3084 39.1592C38.4321 38.8575 38.6178 38.5851 38.8536 38.3599C39.4389 37.9117 40.1556 37.6688 40.8928 37.6688C41.6301 37.6688 42.3467 37.9117 42.9321 38.3599C43.1695 38.5842 43.3568 38.8562 43.4817 39.158C43.6066 39.4598 43.6662 39.7847 43.6567 40.1112C43.6654 40.5268 43.5493 40.9355 43.3233 41.2844C43.0973 41.6332 42.7718 41.9063 42.3889 42.0682C42.86 42.2435 43.2641 42.5622 43.5445 42.9794C43.8248 43.3965 43.9672 43.8911 43.9516 44.3935C43.9734 44.7888 43.9112 45.1843 43.7692 45.5538C43.6271 45.9234 43.4085 46.2587 43.1275 46.5376C42.8465 46.8166 42.5097 47.0329 42.1391 47.1723C41.7685 47.3117 41.3727 47.371 40.9775 47.3464C40.2229 47.3734 39.483 47.1333 38.8881 46.6683C38.5639 46.4043 38.3059 46.068 38.1349 45.6865C37.9639 45.3049 37.8845 44.8886 37.9031 44.4709C37.8985 43.9762 38.0262 43.4892 38.2732 43.0604C38.5435 42.611 38.9535 42.2625 39.4406 42.0681V42.0681Z" fill="#3F3D56"/>
<path d="M40.9273 51.5802C45.938 51.5802 50 47.5182 50 42.5075C50 37.4968 45.938 33.4348 40.9273 33.4348C35.9166 33.4348 31.8546 37.4968 31.8546 42.5075C31.8546 47.5182 35.9166 51.5802 40.9273 51.5802Z" fill="#7ED957"/>
<path d="M39.8041 40.24C39.7948 40.3938 39.8164 40.5478 39.8676 40.6931C39.9188 40.8384 39.9986 40.9719 40.1023 41.0859C40.2064 41.1885 40.3306 41.2684 40.4671 41.3207C40.6036 41.3729 40.7495 41.3964 40.8955 41.3895C41.0433 41.3965 41.1908 41.3728 41.329 41.3201C41.4672 41.2673 41.593 41.1865 41.6985 41.0828C41.8028 40.9685 41.8832 40.8344 41.9349 40.6885C41.9866 40.5426 42.0087 40.3879 41.9997 40.2333C42.0068 40.0841 41.9842 39.935 41.9331 39.7947C41.882 39.6543 41.8035 39.5256 41.7021 39.4159C41.5993 39.3129 41.4762 39.2325 41.3406 39.1797C41.205 39.1269 41.0599 39.1029 40.9146 39.1092C40.7655 39.102 40.6167 39.1258 40.4774 39.1792C40.338 39.2325 40.2113 39.3143 40.1053 39.4192C40.003 39.5291 39.9237 39.6583 39.872 39.7993C39.8203 39.9402 39.7972 40.09 39.8041 40.24V40.24ZM39.6411 44.2973C39.6155 44.7199 39.7487 45.1367 40.0146 45.4662C40.1292 45.6006 40.2722 45.708 40.4332 45.7807C40.5943 45.8533 40.7694 45.8894 40.946 45.8863C41.1171 45.8901 41.2869 45.8558 41.4432 45.7859C41.5994 45.7161 41.7382 45.6123 41.8494 45.4822C42.1082 45.151 42.2355 44.7358 42.2068 44.3164C42.226 43.927 42.096 43.5449 41.8433 43.2479C41.7287 43.1169 41.5866 43.0127 41.4272 42.9428C41.2678 42.8729 41.0949 42.8389 40.9209 42.8433C40.7345 42.8309 40.548 42.8666 40.3793 42.947C40.2107 43.0274 40.0655 43.1498 39.9577 43.3024C39.7515 43.5931 39.6408 43.9408 39.6411 44.2973V44.2973ZM39.4406 42.0681C39.0305 41.9085 38.682 41.6221 38.4459 41.2507C38.2394 40.9067 38.132 40.5124 38.1356 40.1112C38.1258 39.7852 38.1847 39.4609 38.3084 39.1592C38.4321 38.8575 38.6178 38.5851 38.8536 38.3599C39.4389 37.9117 40.1556 37.6688 40.8928 37.6688C41.6301 37.6688 42.3467 37.9117 42.9321 38.3599C43.1695 38.5842 43.3568 38.8562 43.4817 39.158C43.6066 39.4598 43.6662 39.7847 43.6567 40.1112C43.6654 40.5268 43.5493 40.9355 43.3233 41.2844C43.0973 41.6332 42.7718 41.9063 42.3889 42.0682C42.86 42.2435 43.2641 42.5622 43.5445 42.9794C43.8248 43.3965 43.9672 43.8911 43.9516 44.3935C43.9734 44.7888 43.9112 45.1843 43.7692 45.5538C43.6271 45.9234 43.4085 46.2587 43.1275 46.5376C42.8465 46.8166 42.5097 47.0329 42.1391 47.1723C41.7685 47.3117 41.3727 47.371 40.9775 47.3464C40.2229 47.3734 39.483 47.1333 38.8881 46.6683C38.5639 46.4043 38.3059 46.068 38.1349 45.6865C37.9639 45.3049 37.8845 44.8886 37.9031 44.4709C37.8985 43.9762 38.0262 43.4892 38.2732 43.0604C38.5435 42.611 38.9535 42.2625 39.4406 42.0681V42.0681Z" fill="#FAFBF9"/>
</svg>
