<svg width="50" height="55" viewBox="0 0 50 55" fill="none" xmlns="http://www.w3.org/2000/svg">
<path d="M23.4527 46.9054C18.8142 46.9054 14.2798 45.5299 10.4231 42.9529C6.56629 40.3759 3.5603 36.713 1.78523 32.4276C0.0101505 28.1422 -0.454276 23.4267 0.450651 18.8773C1.35558 14.3279 3.5892 10.149 6.86911 6.86913C10.149 3.58922 14.3279 1.35557 18.8773 0.450646C23.4266 -0.45428 28.1422 0.0101632 32.4276 1.78524C36.713 3.56032 40.3758 6.5663 42.9529 10.4231C45.5299 14.2798 46.9053 18.8142 46.9053 23.4527C46.8983 29.6706 44.4251 35.6317 40.0284 40.0284C35.6317 44.4251 29.6705 46.8983 23.4527 46.9054V46.9054ZM23.4527 1.1168C19.035 1.1168 14.7166 2.42678 11.0435 4.88107C7.37041 7.33537 4.50757 10.8238 2.81702 14.9051C1.12647 18.9865 0.684138 23.4775 1.54597 27.8102C2.40781 32.1429 4.5351 36.1228 7.65882 39.2465C10.7826 42.3703 14.7624 44.4975 19.0952 45.3594C23.4279 46.2212 27.9189 45.7789 32.0002 44.0883C36.0816 42.3978 39.57 39.5349 42.0243 35.8618C44.4786 32.1887 45.7885 27.8703 45.7885 23.4527C45.7818 17.5309 43.4265 11.8536 39.2391 7.66622C35.0518 3.47888 29.3744 1.12349 23.4527 1.1168V1.1168Z" fill="#FAFBF9"/>
<path d="M40.5467 54.263C45.7676 54.263 50 50.0307 50 44.8097C50 39.5888 45.7676 35.3564 40.5467 35.3564C35.3258 35.3564 31.0934 39.5888 31.0934 44.8097C31.0934 50.0307 35.3258 54.263 40.5467 54.263Z" fill="#3F3D56"/>
<path d="M39.4236 46.355C39.3912 46.8624 39.5344 47.3654 39.8292 47.7796C39.9339 47.9297 40.0722 48.0533 40.2331 48.1405C40.394 48.2277 40.573 48.2761 40.7559 48.2819C40.9178 48.2834 41.0778 48.247 41.2232 48.1756C41.3685 48.1042 41.4951 47.9998 41.5928 47.8707C41.8508 47.4712 41.9686 46.9974 41.9278 46.5236C41.9679 46.0261 41.8409 45.5295 41.567 45.1122C41.4631 44.975 41.3293 44.8633 41.1756 44.7857C41.0219 44.7082 40.8525 44.6668 40.6804 44.6648C40.5083 44.6629 40.338 44.7003 40.1826 44.7743C40.0272 44.8483 39.8908 44.9569 39.7838 45.0918C39.5188 45.4573 39.3912 45.9047 39.4236 46.355V46.355ZM43.5242 42.2262L41.7728 42.4288C41.759 42.1205 41.6409 41.8261 41.4378 41.5937C41.3453 41.5035 41.2355 41.4331 41.1149 41.3868C40.9942 41.3404 40.8655 41.3192 40.7364 41.3243C40.5429 41.327 40.3532 41.3776 40.1841 41.4716C40.015 41.5656 39.8718 41.7 39.7674 41.8628C39.4182 42.5581 39.2467 43.329 39.2683 44.1067C39.4632 43.8453 39.7168 43.6334 40.0088 43.4882C40.3007 43.3429 40.6227 43.2683 40.9487 43.2704C41.3187 43.2691 41.6844 43.3493 42.0198 43.5055C42.3552 43.6616 42.6521 43.8898 42.8892 44.1738C43.444 44.8202 43.7328 45.653 43.6971 46.5041C43.7404 47.3942 43.4357 48.2662 42.8476 48.9358C42.5485 49.2452 42.1864 49.4868 41.7858 49.644C41.3852 49.8013 40.9554 49.8706 40.5257 49.8472C40.0959 49.8238 39.6763 49.7083 39.2951 49.5086C38.9139 49.3088 38.5801 49.0294 38.3163 48.6894C37.7025 47.9151 37.3956 46.6456 37.3956 44.8807C37.3956 43.0707 37.7153 41.7661 38.3548 40.967C38.6458 40.5846 39.0233 40.2765 39.4563 40.0681C39.8894 39.8597 40.3656 39.7569 40.846 39.768C41.4976 39.7447 42.1338 39.9697 42.6258 40.3976C43.1293 40.8837 43.4471 41.5305 43.5242 42.2262V42.2262Z" fill="#3F3D56"/>
<path d="M40.5467 54.263C45.7676 54.263 50 50.0307 50 44.8097C50 39.5888 45.7676 35.3564 40.5467 35.3564C35.3258 35.3564 31.0934 39.5888 31.0934 44.8097C31.0934 50.0307 35.3258 54.263 40.5467 54.263Z" fill="#7ED957"/>
<path d="M39.4236 46.355C39.3912 46.8624 39.5344 47.3654 39.8292 47.7796C39.9339 47.9297 40.0722 48.0533 40.2331 48.1405C40.394 48.2277 40.573 48.2761 40.7559 48.2819C40.9178 48.2834 41.0778 48.247 41.2232 48.1756C41.3685 48.1042 41.4951 47.9998 41.5928 47.8707C41.8508 47.4712 41.9686 46.9974 41.9278 46.5236C41.9679 46.0261 41.8409 45.5295 41.567 45.1122C41.4631 44.975 41.3293 44.8633 41.1756 44.7857C41.0219 44.7082 40.8525 44.6668 40.6804 44.6648C40.5083 44.6629 40.338 44.7003 40.1826 44.7743C40.0272 44.8483 39.8908 44.9569 39.7838 45.0918C39.5188 45.4573 39.3912 45.9047 39.4236 46.355V46.355ZM43.5242 42.2262L41.7728 42.4288C41.759 42.1205 41.6409 41.8261 41.4378 41.5937C41.3453 41.5035 41.2355 41.4331 41.1149 41.3868C40.9942 41.3404 40.8655 41.3192 40.7364 41.3243C40.5429 41.327 40.3532 41.3776 40.1841 41.4716C40.015 41.5656 39.8718 41.7 39.7674 41.8628C39.4182 42.5581 39.2467 43.329 39.2683 44.1067C39.4632 43.8453 39.7168 43.6334 40.0088 43.4882C40.3007 43.3429 40.6227 43.2683 40.9487 43.2704C41.3187 43.2691 41.6844 43.3493 42.0198 43.5055C42.3552 43.6616 42.6521 43.8898 42.8892 44.1738C43.444 44.8202 43.7328 45.653 43.6971 46.5041C43.7404 47.3942 43.4357 48.2662 42.8476 48.9358C42.5485 49.2452 42.1864 49.4868 41.7858 49.644C41.3852 49.8013 40.9554 49.8706 40.5257 49.8472C40.0959 49.8238 39.6763 49.7083 39.2951 49.5086C38.9139 49.3088 38.5801 49.0294 38.3163 48.6894C37.7025 47.9151 37.3956 46.6456 37.3956 44.8807C37.3956 43.0707 37.7153 41.7661 38.3548 40.967C38.6458 40.5846 39.0233 40.2765 39.4563 40.0681C39.8894 39.8597 40.3656 39.7569 40.846 39.768C41.4976 39.7447 42.1338 39.9697 42.6258 40.3976C43.1293 40.8837 43.4471 41.5305 43.5242 42.2262V42.2262Z" fill="#FAFBF9"/>
<path d="M22.9998 20.8125C21.7939 20.8125 20.812 21.7939 20.812 22.9998C20.812 24.2061 21.7939 25.188 22.9998 25.188C24.2061 25.188 25.1875 24.2061 25.1875 22.9998C25.1875 21.7939 24.2061 20.8125 22.9998 20.8125ZM22.9998 20.8125C21.7939 20.8125 20.812 21.7939 20.812 22.9998C20.812 24.2061 21.7939 25.188 22.9998 25.188C24.2061 25.188 25.1875 24.2061 25.1875 22.9998C25.1875 21.7939 24.2061 20.8125 22.9998 20.8125ZM26.6445 17.2455H19.3555C18.1921 17.2455 17.2455 18.1921 17.2455 19.3555V26.6445C17.2455 27.8079 18.1921 28.7545 19.3555 28.7545H26.6445C27.8079 28.7545 28.7545 27.8079 28.7545 26.6445V19.3555C28.7545 18.1921 27.8079 17.2455 26.6445 17.2455ZM22.9998 26.7888C20.9109 26.7888 19.2112 25.0891 19.2112 22.9998C19.2112 20.9109 20.9109 19.2112 22.9998 19.2112C25.0891 19.2112 26.7888 20.9109 26.7888 22.9998C26.7888 25.0891 25.0891 26.7888 22.9998 26.7888ZM26.9105 19.9947C26.4161 19.9947 26.014 19.5926 26.014 19.0982C26.014 18.6039 26.4161 18.2018 26.9105 18.2018C27.4048 18.2018 27.8069 18.6039 27.8069 19.0982C27.8069 19.5926 27.4048 19.9947 26.9105 19.9947ZM22.9998 20.8125C21.7939 20.8125 20.812 21.7939 20.812 22.9998C20.812 24.2061 21.7939 25.188 22.9998 25.188C24.2061 25.188 25.1875 24.2061 25.1875 22.9998C25.1875 21.7939 24.2061 20.8125 22.9998 20.8125ZM26.6445 17.2455H19.3555C18.1921 17.2455 17.2455 18.1921 17.2455 19.3555V26.6445C17.2455 27.8079 18.1921 28.7545 19.3555 28.7545H26.6445C27.8079 28.7545 28.7545 27.8079 28.7545 26.6445V19.3555C28.7545 18.1921 27.8079 17.2455 26.6445 17.2455ZM22.9998 26.7888C20.9109 26.7888 19.2112 25.0891 19.2112 22.9998C19.2112 20.9109 20.9109 19.2112 22.9998 19.2112C25.0891 19.2112 26.7888 20.9109 26.7888 22.9998C26.7888 25.0891 25.0891 26.7888 22.9998 26.7888ZM26.9105 19.9947C26.4161 19.9947 26.014 19.5926 26.014 19.0982C26.014 18.6039 26.4161 18.2018 26.9105 18.2018C27.4048 18.2018 27.8069 18.6039 27.8069 19.0982C27.8069 19.5926 27.4048 19.9947 26.9105 19.9947ZM22.9998 20.8125C21.7939 20.8125 20.812 21.7939 20.812 22.9998C20.812 24.2061 21.7939 25.188 22.9998 25.188C24.2061 25.188 25.1875 24.2061 25.1875 22.9998C25.1875 21.7939 24.2061 20.8125 22.9998 20.8125ZM12 12V34H34V12H12ZM30.3553 26.6445C30.3553 28.6908 28.6908 30.3553 26.6445 30.3553H19.3555C17.3092 30.3553 15.6447 28.6908 15.6447 26.6445V19.3555C15.6447 17.3092 17.3092 15.6447 19.3555 15.6447H26.6445C28.6908 15.6447 30.3553 17.3092 30.3553 19.3555V26.6445ZM26.6445 17.2455H19.3555C18.1921 17.2455 17.2455 18.1921 17.2455 19.3555V26.6445C17.2455 27.8079 18.1921 28.7545 19.3555 28.7545H26.6445C27.8079 28.7545 28.7545 27.8079 28.7545 26.6445V19.3555C28.7545 18.1921 27.8079 17.2455 26.6445 17.2455ZM22.9998 26.7888C20.9109 26.7888 19.2112 25.0891 19.2112 22.9998C19.2112 20.9109 20.9109 19.2112 22.9998 19.2112C25.0891 19.2112 26.7888 20.9109 26.7888 22.9998C26.7888 25.0891 25.0891 26.7888 22.9998 26.7888ZM26.9105 19.9947C26.4161 19.9947 26.014 19.5926 26.014 19.0982C26.014 18.6039 26.4161 18.2018 26.9105 18.2018C27.4048 18.2018 27.8069 18.6039 27.8069 19.0982C27.8069 19.5926 27.4048 19.9947 26.9105 19.9947ZM22.9998 20.8125C21.7939 20.8125 20.812 21.7939 20.812 22.9998C20.812 24.2061 21.7939 25.188 22.9998 25.188C24.2061 25.188 25.1875 24.2061 25.1875 22.9998C25.1875 21.7939 24.2061 20.8125 22.9998 20.8125ZM22.9998 20.8125C21.7939 20.8125 20.812 21.7939 20.812 22.9998C20.812 24.2061 21.7939 25.188 22.9998 25.188C24.2061 25.188 25.1875 24.2061 25.1875 22.9998C25.1875 21.7939 24.2061 20.8125 22.9998 20.8125ZM22.9998 20.8125C21.7939 20.8125 20.812 21.7939 20.812 22.9998C20.812 24.2061 21.7939 25.188 22.9998 25.188C24.2061 25.188 25.1875 24.2061 25.1875 22.9998C25.1875 21.7939 24.2061 20.8125 22.9998 20.8125ZM26.6445 17.2455H19.3555C18.1921 17.2455 17.2455 18.1921 17.2455 19.3555V26.6445C17.2455 27.8079 18.1921 28.7545 19.3555 28.7545H26.6445C27.8079 28.7545 28.7545 27.8079 28.7545 26.6445V19.3555C28.7545 18.1921 27.8079 17.2455 26.6445 17.2455ZM22.9998 26.7888C20.9109 26.7888 19.2112 25.0891 19.2112 22.9998C19.2112 20.9109 20.9109 19.2112 22.9998 19.2112C25.0891 19.2112 26.7888 20.9109 26.7888 22.9998C26.7888 25.0891 25.0891 26.7888 22.9998 26.7888ZM26.9105 19.9947C26.4161 19.9947 26.014 19.5926 26.014 19.0982C26.014 18.6039 26.4161 18.2018 26.9105 18.2018C27.4048 18.2018 27.8069 18.6039 27.8069 19.0982C27.8069 19.5926 27.4048 19.9947 26.9105 19.9947ZM22.9998 20.8125C21.7939 20.8125 20.812 21.7939 20.812 22.9998C20.812 24.2061 21.7939 25.188 22.9998 25.188C24.2061 25.188 25.1875 24.2061 25.1875 22.9998C25.1875 21.7939 24.2061 20.8125 22.9998 20.8125ZM22.9998 20.8125C21.7939 20.8125 20.812 21.7939 20.812 22.9998C20.812 24.2061 21.7939 25.188 22.9998 25.188C24.2061 25.188 25.1875 24.2061 25.1875 22.9998C25.1875 21.7939 24.2061 20.8125 22.9998 20.8125ZM22.9998 20.8125C21.7939 20.8125 20.812 21.7939 20.812 22.9998C20.812 24.2061 21.7939 25.188 22.9998 25.188C24.2061 25.188 25.1875 24.2061 25.1875 22.9998C25.1875 21.7939 24.2061 20.8125 22.9998 20.8125ZM26.6445 17.2455H19.3555C18.1921 17.2455 17.2455 18.1921 17.2455 19.3555V26.6445C17.2455 27.8079 18.1921 28.7545 19.3555 28.7545H26.6445C27.8079 28.7545 28.7545 27.8079 28.7545 26.6445V19.3555C28.7545 18.1921 27.8079 17.2455 26.6445 17.2455ZM22.9998 26.7888C20.9109 26.7888 19.2112 25.0891 19.2112 22.9998C19.2112 20.9109 20.9109 19.2112 22.9998 19.2112C25.0891 19.2112 26.7888 20.9109 26.7888 22.9998C26.7888 25.0891 25.0891 26.7888 22.9998 26.7888ZM26.9105 19.9947C26.4161 19.9947 26.014 19.5926 26.014 19.0982C26.014 18.6039 26.4161 18.2018 26.9105 18.2018C27.4048 18.2018 27.8069 18.6039 27.8069 19.0982C27.8069 19.5926 27.4048 19.9947 26.9105 19.9947ZM22.9998 20.8125C21.7939 20.8125 20.812 21.7939 20.812 22.9998C20.812 24.2061 21.7939 25.188 22.9998 25.188C24.2061 25.188 25.1875 24.2061 25.1875 22.9998C25.1875 21.7939 24.2061 20.8125 22.9998 20.8125Z" fill="#FAFBF9"/>
</svg>
