<svg width="135" height="62" viewBox="0 0 135 62" fill="none" xmlns="http://www.w3.org/2000/svg">
<path d="M0.48 21.064H1.68V10.264H0.48V6.328H11.496C13.56 6.328 15.136 6.752 16.224 7.6C17.312 8.448 17.856 9.824 17.856 11.728C17.856 12.8 17.64 13.728 17.208 14.512C16.776 15.296 16.16 15.84 15.36 16.144L15.384 16.384C16.92 16.624 17.688 17.568 17.688 19.216V21.064H18.816V25H11.208V19.36C11.208 18.736 11.112 18.264 10.92 17.944C10.744 17.624 10.456 17.408 10.056 17.296C9.672 17.184 9.12 17.128 8.4 17.128V21.064H9.984V25H0.48V21.064ZM9.696 14.2C10.16 14.2 10.504 14.08 10.728 13.84C10.968 13.584 11.088 13.192 11.088 12.664V11.8C11.088 11.272 10.968 10.888 10.728 10.648C10.504 10.392 10.16 10.264 9.696 10.264H8.4V14.2H9.696ZM33.6193 21.064V25H27.2833V23.368C26.9313 23.88 26.4353 24.336 25.7953 24.736C25.1713 25.136 24.4033 25.336 23.4913 25.336C22.2913 25.336 21.3473 25.016 20.6593 24.376C19.9713 23.736 19.6273 22.832 19.6273 21.664C19.6273 18.64 22.1953 17.088 27.3313 17.008C27.2833 16.464 27.0753 16.096 26.7073 15.904C26.3393 15.696 25.7153 15.592 24.8353 15.592C24.1153 15.592 23.3393 15.672 22.5073 15.832C21.6913 15.976 20.9393 16.176 20.2513 16.432V12.016C21.0993 11.808 22.0193 11.64 23.0113 11.512C24.0033 11.384 24.9713 11.32 25.9153 11.32C28.2993 11.32 30.0033 11.752 31.0273 12.616C32.0513 13.48 32.5633 14.816 32.5633 16.624V21.064H33.6193ZM27.2833 19.384C26.5633 19.384 26.0033 19.48 25.6033 19.672C25.2193 19.864 25.0273 20.184 25.0273 20.632C25.0273 20.904 25.1073 21.128 25.2673 21.304C25.4433 21.464 25.6833 21.544 25.9873 21.544C26.4033 21.544 26.7233 21.368 26.9473 21.016C27.1713 20.664 27.2833 20.168 27.2833 19.528V19.384ZM39.1209 25.336C37.4889 25.336 36.2569 24.728 35.4249 23.512C34.6089 22.296 34.2009 20.568 34.2009 18.328C34.2009 16.088 34.6089 14.36 35.4249 13.144C36.2569 11.928 37.4889 11.32 39.1209 11.32C39.9369 11.32 40.6569 11.52 41.2809 11.92C41.9209 12.32 42.4409 12.776 42.8409 13.288V10.264H41.4249V6.328H48.3609V21.064H49.4169V25H42.8409V23.368C42.4409 23.88 41.9209 24.336 41.2809 24.736C40.6569 25.136 39.9369 25.336 39.1209 25.336ZM41.4489 21.064C41.9129 21.064 42.2569 20.944 42.4809 20.704C42.7209 20.448 42.8409 20.056 42.8409 19.528V17.128C42.8409 16.6 42.7209 16.216 42.4809 15.976C42.2569 15.72 41.9129 15.592 41.4489 15.592C40.9849 15.592 40.6329 15.72 40.3929 15.976C40.1689 16.216 40.0569 16.6 40.0569 17.128V19.528C40.0569 20.056 40.1689 20.448 40.3929 20.704C40.6329 20.944 40.9849 21.064 41.4489 21.064ZM51.3418 10.336V6.328H56.2378V10.336H51.3418ZM50.1898 25V21.064H51.2458V15.592H50.1898V11.656H56.7658V21.064H57.8218V25H50.1898Z" fill="#FAFBF9"/>
<path d="M26.952 39.264H25.752V50.064H26.952V54H17.88V50.064H19.032V41.664L14.952 54H11.4L7.2 41.784V50.064H8.352V54H0.48V50.064H1.68V39.264H0.48V35.328H11.472L13.968 42.816L16.368 35.328H26.952V39.264ZM41.8459 50.064V54H35.5099V52.368C35.1579 52.88 34.6619 53.336 34.0219 53.736C33.3979 54.136 32.6299 54.336 31.7179 54.336C30.5179 54.336 29.5739 54.016 28.8859 53.376C28.1979 52.736 27.8539 51.832 27.8539 50.664C27.8539 47.64 30.4219 46.088 35.5579 46.008C35.5099 45.464 35.3019 45.096 34.9339 44.904C34.5659 44.696 33.9419 44.592 33.0619 44.592C32.3419 44.592 31.5659 44.672 30.7339 44.832C29.9179 44.976 29.1659 45.176 28.4779 45.432V41.016C29.3259 40.808 30.2459 40.64 31.2379 40.512C32.2299 40.384 33.1979 40.32 34.1419 40.32C36.5259 40.32 38.2299 40.752 39.2539 41.616C40.2779 42.48 40.7899 43.816 40.7899 45.624V50.064H41.8459ZM35.5099 48.384C34.7899 48.384 34.2299 48.48 33.8299 48.672C33.4459 48.864 33.2539 49.184 33.2539 49.632C33.2539 49.904 33.3339 50.128 33.4939 50.304C33.6699 50.464 33.9099 50.544 34.2139 50.544C34.6299 50.544 34.9499 50.368 35.1739 50.016C35.3979 49.664 35.5099 49.168 35.5099 48.528V48.384ZM45.4986 54L42.4746 44.592H41.4666V40.656H48.8826V44.592H47.8746L49.1466 49.344H49.3866L50.6586 44.592H49.6506V40.656H56.6106V44.592H55.6026L52.6506 54H45.4986ZM64.4434 54.336C62.1714 54.336 60.3954 53.744 59.1154 52.56C57.8354 51.36 57.1954 49.616 57.1954 47.328C57.1954 45.04 57.8354 43.304 59.1154 42.12C60.3954 40.92 62.1714 40.32 64.4434 40.32C66.6994 40.32 68.3234 40.912 69.3154 42.096C70.3234 43.264 70.8274 44.72 70.8274 46.464V48.192H63.0514V48.336C63.0514 48.928 63.2274 49.368 63.5794 49.656C63.9314 49.928 64.5154 50.064 65.3314 50.064C66.3074 50.064 67.2354 49.992 68.1154 49.848C68.9954 49.704 69.7634 49.52 70.4194 49.296V53.136C69.8594 53.44 69.0354 53.72 67.9474 53.976C66.8754 54.216 65.7074 54.336 64.4434 54.336ZM65.8354 45.552V45.264C65.8354 44.72 65.7154 44.328 65.4754 44.088C65.2514 43.848 64.9074 43.728 64.4434 43.728C63.9794 43.728 63.6274 43.856 63.3874 44.112C63.1634 44.352 63.0514 44.736 63.0514 45.264V45.552H65.8354ZM81.7894 40.32C82.1094 40.32 82.4134 40.352 82.7014 40.416C82.9894 40.48 83.2294 40.56 83.4214 40.656V45.24C82.7654 44.968 82.0614 44.832 81.3094 44.832C80.3014 44.832 79.5254 45.096 78.9814 45.624C78.4374 46.152 78.1654 46.936 78.1654 47.976V50.064H80.3254V54H71.5894V50.064H72.6454V44.592H71.5894V40.656H78.1654V42.408C78.6134 41.736 79.1254 41.224 79.7014 40.872C80.2774 40.504 80.9734 40.32 81.7894 40.32ZM85.3496 39.336V35.328H90.2456V39.336H85.3496ZM84.1976 54V50.064H85.2536V44.592H84.1976V40.656H90.7736V50.064H91.8296V54H84.1976ZM99.6705 54.336C97.3825 54.336 95.5985 53.744 94.3185 52.56C93.0385 51.36 92.3985 49.616 92.3985 47.328C92.3985 45.04 93.0385 43.304 94.3185 42.12C95.5985 40.92 97.3745 40.32 99.6465 40.32C100.751 40.32 101.807 40.472 102.815 40.776C103.823 41.08 104.607 41.424 105.167 41.808V46.56H101.039V46.128C101.039 45.6 100.927 45.216 100.703 44.976C100.479 44.72 100.127 44.592 99.6465 44.592C98.7185 44.592 98.2545 45.104 98.2545 46.128V48.192C98.2545 49.44 98.9665 50.064 100.391 50.064C101.719 50.064 103.263 49.92 105.023 49.632V53.4C104.479 53.64 103.711 53.856 102.719 54.048C101.743 54.24 100.727 54.336 99.6705 54.336ZM120.443 50.064H121.475V54H115.595L113.123 49.392H112.547V54H105.971V50.064H107.027V39.264H105.971V35.328H112.547V45.072H113.123L116.099 40.656H121.163V44.592H120.179L118.139 46.872L120.443 50.064ZM128.069 54.336C126.053 54.336 124.109 54.016 122.237 53.376V49.824H126.125V50.064C126.125 50.832 126.613 51.216 127.589 51.216C128.453 51.216 128.885 50.92 128.885 50.328C128.885 50.008 128.757 49.768 128.501 49.608C128.261 49.448 127.829 49.312 127.205 49.2L126.005 48.984C123.493 48.536 122.237 47.112 122.237 44.712C122.237 43.32 122.765 42.24 123.821 41.472C124.877 40.704 126.301 40.32 128.093 40.32C130.093 40.32 131.781 40.656 133.157 41.328V44.664H129.509V44.424C129.509 44.104 129.397 43.864 129.173 43.704C128.965 43.528 128.653 43.44 128.237 43.44C127.437 43.44 127.037 43.696 127.037 44.208C127.037 44.48 127.149 44.688 127.373 44.832C127.597 44.976 128.005 45.112 128.597 45.24L129.965 45.504C131.389 45.776 132.405 46.28 133.013 47.016C133.621 47.752 133.925 48.696 133.925 49.848C133.925 51.304 133.413 52.416 132.389 53.184C131.381 53.952 129.941 54.336 128.069 54.336Z" fill="#FAFBF9"/>
<path d="M71 22C74.3137 22 77 19.3137 77 16C77 12.6863 74.3137 10 71 10C67.6863 10 65 12.6863 65 16C65 19.3137 67.6863 22 71 22Z" fill="#FAFBF9"/>
<path d="M71 6C65.4771 6 61 10.4771 61 16C61 21.5228 65.4771 26 71 26C76.5228 26 81 21.5228 81 16C81 10.4771 76.5228 6 71 6ZM62.5 16C62.5 11.3056 66.3056 7.5 71 7.5C75.6944 7.5 79.5 11.3056 79.5 16C79.5 20.6944 75.6944 24.5 71 24.5C66.3056 24.5 62.5 20.6944 62.5 16Z" fill="#7ED957"/>
</svg>
