<svg width="50" height="53" viewBox="0 0 50 53" fill="none" xmlns="http://www.w3.org/2000/svg">
<path d="M23.3013 46.7057C18.6927 46.7057 14.1877 45.3391 10.3558 42.7787C6.52392 40.2183 3.53733 36.5791 1.77371 32.3214C0.010085 28.0636 -0.451344 23.3785 0.447742 18.8585C1.34683 14.3385 3.56604 10.1866 6.82478 6.92783C10.0835 3.66908 14.2354 1.44985 18.7554 0.550765C23.2755 -0.348321 27.9606 0.113125 32.2184 1.87675C36.4761 3.64037 40.1153 6.62695 42.6756 10.4588C45.236 14.2907 46.6026 18.7958 46.6026 23.4043C46.5956 29.5821 44.1384 35.5048 39.7701 39.8731C35.4018 44.2415 29.479 46.6987 23.3013 46.7057V46.7057ZM23.3013 1.21262C18.9122 1.21262 14.6217 2.51414 10.9723 4.9526C7.32284 7.39106 4.47848 10.8569 2.79884 14.9119C1.1192 18.9669 0.679723 23.429 1.536 27.7337C2.39227 32.0385 4.50583 35.9927 7.6094 39.0963C10.713 42.1998 14.6671 44.3134 18.9719 45.1697C23.2767 46.0259 27.7387 45.5865 31.7937 43.9068C35.8487 42.2272 39.3146 39.3828 41.753 35.7334C44.1915 32.084 45.493 27.7935 45.493 23.4043C45.4864 17.5208 43.1462 11.8801 38.9859 7.71978C34.8256 3.55946 29.1849 1.21927 23.3013 1.21262V1.21262Z" fill="#FAFBF9"/>
<path d="M34.5015 13.642C34.1559 13.8292 33.8005 13.9872 33.4375 14.1155C33.8673 13.5218 34.195 12.8231 34.3951 12.0586C34.44 11.8873 34.3935 11.6997 34.2781 11.5876C34.1629 11.4754 34.0029 11.462 33.8761 11.5538C33.105 12.1124 32.2732 12.5138 31.4009 12.7485C30.5222 11.6999 29.3289 11.103 28.0952 11.103C25.491 11.103 23.3723 13.6907 23.3723 16.8713C23.3723 17.1218 23.3853 17.371 23.411 17.6166C20.1795 17.2701 17.1752 15.3301 15.1122 12.2392C15.0387 12.129 14.9254 12.0696 14.8094 12.081C14.6934 12.0921 14.5891 12.172 14.5305 12.2948C14.1121 13.1718 13.8909 14.1747 13.8909 15.1953C13.8909 16.5852 14.2972 17.9039 15.0149 18.9344C14.7966 18.8421 14.5849 18.7267 14.3828 18.5897C14.2743 18.5159 14.1418 18.5171 14.034 18.5925C13.9262 18.6681 13.8585 18.8069 13.8557 18.9586C13.8551 18.9842 13.8551 19.0098 13.8551 19.0357C13.8551 21.1104 14.7693 22.9782 16.1671 23.9963C16.047 23.9816 15.927 23.9604 15.8078 23.9326C15.6848 23.9039 15.5585 23.9565 15.4756 24.071C15.3926 24.1854 15.3651 24.3449 15.4033 24.4906C15.9207 26.4634 17.2527 27.9145 18.8629 28.3569C17.5274 29.3786 16.0001 29.9138 14.3968 29.9138C14.0622 29.9138 13.7258 29.8898 13.3965 29.8422C13.233 29.8184 13.0765 29.9364 13.0208 30.1265C12.9651 30.3165 13.0242 30.5285 13.1633 30.6374C15.223 32.2505 17.6046 33.103 20.0505 33.103C24.8588 33.103 27.8668 30.3336 29.5434 28.0103C31.6341 25.1134 32.8332 21.2789 32.8332 17.4902C32.8332 17.332 32.8312 17.1722 32.8272 17.0128C33.6521 16.2538 34.3622 15.3351 34.9401 14.2793C35.0279 14.119 35.0184 13.907 34.9167 13.7594C34.8152 13.6116 34.646 13.5638 34.5015 13.642Z" fill="#FAFBF9"/>
<path d="M40.7097 52.1598C45.8406 52.1598 50 47.9548 50 42.7675C50 37.5803 45.8406 33.3752 40.7097 33.3752C35.5789 33.3752 31.4195 37.5803 31.4195 42.7675C31.4195 47.9548 35.5789 52.1598 40.7097 52.1598Z" fill="#3F3D56"/>
<path d="M42.5678 47.7769H40.6763V40.5696C39.9782 41.2267 39.1436 41.7216 38.232 42.0188V40.2834C38.8174 40.068 39.3616 39.7538 39.8408 39.3545C40.3833 38.9482 40.797 38.394 41.0324 37.7584H42.5678V47.7769Z" fill="#3F3D56"/>
<path d="M40.7097 52.1598C45.8406 52.1598 50 47.9548 50 42.7675C50 37.5803 45.8406 33.3752 40.7097 33.3752C35.5789 33.3752 31.4195 37.5803 31.4195 42.7675C31.4195 47.9548 35.5789 52.1598 40.7097 52.1598Z" fill="#7ED957"/>
<path d="M42.5678 47.7769H40.6763V40.5696C39.9782 41.2267 39.1436 41.7216 38.232 42.0188V40.2834C38.8174 40.068 39.3616 39.7538 39.8408 39.3545C40.3833 38.9482 40.797 38.394 41.0324 37.7584H42.5678V47.7769Z" fill="#FAFBF9"/>
</svg>
