<svg width="275" height="223" viewBox="0 0 275 223" fill="none" xmlns="http://www.w3.org/2000/svg">
<g clip-path="url(#clip0)">
<path d="M274.734 146.751C274.734 188.465 213.231 222.278 137.367 222.278C96.6107 222.278 60.0003 212.52 34.8455 197.019C18.4322 186.908 6.89335 174.349 2.26448 160.471C0.770566 156.051 0.00574707 151.417 0 146.751C0 105.041 113.836 -83.1058 137.367 71.2281C160.898 225.562 274.734 105.041 274.734 146.751Z" fill="#7ED957"/>
<path opacity="0.1" d="M205.634 174.141C205.634 189.543 156.994 202.031 96.9896 202.031C73.8786 202.031 52.4535 200.178 34.8455 197.019C18.4322 186.908 6.8934 174.349 2.26453 160.471C20.8923 151.983 56.3331 146.251 96.9896 146.251C156.994 146.251 205.634 158.739 205.634 174.141Z" fill="black"/>
<path d="M127.211 15.2816C118.601 0.732893 101.567 0.0548807 101.567 0.0548807C101.567 0.0548807 84.9672 -2.06783 74.3189 20.09C64.3938 40.7428 50.6958 60.6836 72.1136 65.5183L75.9823 53.4772L78.3781 66.4147C81.4276 66.6341 84.4868 66.6863 87.542 66.5713C110.479 65.8308 132.323 66.788 131.619 58.5573C130.684 47.6158 135.496 29.2803 127.211 15.2816Z" fill="#2F2E41"/>
<path d="M70.8907 142.691C70.5714 144.279 70.3351 145.893 69.7924 147.419C69.2536 148.934 68.4218 150.335 67.9291 151.866C66.3588 156.745 68.5357 162.185 72.0126 165.952C75.0278 169.204 78.9197 171.515 83.219 172.606C86.3556 173.395 89.6169 173.508 92.8494 173.618C101.8 173.921 110.981 174.193 119.463 171.316C122.142 170.385 124.731 169.209 127.195 167.804C127.973 167.433 128.658 166.893 129.201 166.224C129.848 165.303 129.931 164.109 129.925 162.983C129.906 159.189 129.137 155.414 129.319 151.624C129.42 149.524 129.813 147.427 129.62 145.334C129.181 140.587 125.412 136.339 120.752 135.338C118.346 134.822 115.85 135.103 113.401 135.339C107.042 135.95 100.657 136.235 94.2695 136.194C87.7431 136.153 81.257 135.156 74.7631 135.052C72.8427 135.021 72.8815 135.614 72.2701 137.472C71.7069 139.183 71.2463 140.926 70.8907 142.691V142.691Z" fill="#2F2E41"/>
<path d="M89.4121 48.996C89.0984 50.6382 88.7594 52.3405 87.7726 53.69C86.6371 55.2427 84.7859 56.1299 83.5644 57.6159C81.7258 59.8525 81.6203 62.9999 81.6127 65.8952C81.6058 68.5625 81.6599 71.4074 83.1473 73.6214C84.1127 75.0583 85.5815 76.0657 87.017 77.0331C92.5951 80.7922 98.6227 84.6188 105.348 84.7428C108.135 84.7942 111.122 84.0745 112.956 81.9755C113.748 80.9896 114.37 79.8791 114.798 78.6893C116.518 74.4503 117.56 69.9672 117.887 65.4044C118.04 63.2577 118.026 61.0484 117.299 59.0226C116.482 56.7447 114.83 54.8704 113.738 52.7107C112.448 50.1425 111.975 47.2404 112.386 44.3956C112.44 44.1953 112.423 43.9823 112.338 43.793C112.248 43.6917 112.136 43.6125 112.011 43.5616C111.885 43.5108 111.75 43.4896 111.615 43.4999L98.2795 42.5399C97.0375 42.4782 95.8008 42.3367 94.577 42.1163C93.8581 41.9702 91.9594 40.9492 91.274 41.2207C90.0052 41.7232 89.6722 47.6342 89.4121 48.996Z" fill="#A0616A"/>
<path opacity="0.1" d="M89.4121 49.4123C89.0984 51.0545 88.7594 52.7568 87.7726 54.1064C86.6371 55.6591 84.7859 56.5462 83.5644 58.0322C81.7258 60.2689 81.6203 63.4162 81.6127 66.3116C81.6058 68.9788 81.6599 71.8237 83.1473 74.0377C84.1127 75.4746 85.5815 76.482 87.017 77.4494C92.5951 81.2085 98.6227 85.0351 105.348 85.1591C108.135 85.2105 111.122 84.4908 112.956 82.3919C113.748 81.4059 114.37 80.2954 114.798 79.1056C116.518 74.8666 117.56 70.3835 117.887 65.8207C118.04 63.674 118.026 61.4647 117.299 59.439C116.482 57.161 114.83 55.2867 113.738 53.127C112.448 50.5589 111.975 47.6567 112.386 44.8119C112.44 44.6116 112.423 44.3987 112.338 44.2093C112.248 44.108 112.136 44.0288 112.011 43.9779C111.885 43.9271 111.75 43.906 111.615 43.9162L98.2795 42.9562C97.0375 42.8945 95.8008 42.753 94.577 42.5326C93.8581 42.3865 91.9594 41.3655 91.274 41.637C90.0052 42.1395 89.6722 48.0505 89.4121 49.4123Z" fill="black"/>
<path d="M102.165 50.7842C112.97 50.7842 121.729 42.0249 121.729 31.2198C121.729 20.4147 112.97 11.6554 102.165 11.6554C91.3597 11.6554 82.6004 20.4147 82.6004 31.2198C82.6004 42.0249 91.3597 50.7842 102.165 50.7842Z" fill="#A0616A"/>
<path d="M92.1562 75.0394C93.1759 76.1052 94.2564 77.1605 95.5926 77.7853C96.9217 78.4068 98.4189 78.5615 99.8856 78.6027C103.412 78.7019 107.235 78.0557 109.689 75.5203C112.851 72.252 112.747 66.9805 115.226 63.1676C115.426 62.8219 115.698 62.5238 116.025 62.294C116.44 62.0676 116.91 61.9596 117.383 61.9816C120.514 61.9524 123.241 63.9828 125.702 65.9179C126.805 66.7847 127.935 67.6828 128.63 68.9007C129.117 69.8502 129.45 70.8708 129.618 71.9246C130.839 77.8868 131.235 83.983 131.627 90.0563C131.844 93.4109 132.061 96.7687 132.045 100.13C131.992 111.205 129.418 122.095 126.858 132.87C126.528 134.258 126.077 135.81 124.814 136.475C124.251 136.728 123.647 136.876 123.031 136.91C115.699 137.772 108.352 138.634 100.971 138.747C98.09 138.792 95.2107 138.722 92.3326 138.538C91.8372 138.532 91.346 138.446 90.8775 138.284C90.2418 137.979 89.6954 137.515 89.2912 136.937C85.2985 131.906 85.0629 124.95 85.0884 118.527C85.1508 102.824 85.7118 87.1325 86.7716 71.454C86.8591 70.1599 86.8782 68.5883 85.9457 67.5703C87.6247 70.2581 89.96 72.7439 92.1562 75.0394Z" fill="#D0CDE1"/>
<path d="M88.0119 52.4492C87.3512 53.6454 82.4795 56.6156 81.539 57.6069C76.2842 63.1458 66.6934 62.938 61.8875 68.8706C60.1966 70.9578 59.3181 73.5805 58.672 76.1878C57.7582 79.8755 57.2703 83.8972 58.8011 87.3743C60.274 90.7201 63.3748 93.0332 65.48 96.0219C67.7915 99.3034 68.8308 103.288 69.8268 107.176C70.5622 110.047 71.3037 112.989 71.0172 115.939C70.6916 119.293 69.0686 122.364 68.1104 125.595C67.1521 128.825 66.9867 132.673 69.2024 135.211C70.8301 137.077 73.3833 137.816 75.8237 138.232C78.9386 138.763 82.1043 138.914 85.261 139.054C88.0507 139.177 91.1258 139.201 93.2704 137.412C94.9626 136.001 95.698 133.711 95.7932 131.51C95.8884 129.309 95.4304 127.127 95.1436 124.942C94.8462 122.678 94.7319 120.393 94.6363 118.111C94.2072 107.872 94.1487 97.6256 94.4606 87.373C94.5256 85.2395 94.6044 83.0799 94.1495 80.9945C93.5512 78.2519 92.0689 75.8008 90.8321 73.2808C88.3772 68.2789 87.2162 63.42 87.5957 57.8607C87.9702 52.3734 90.3633 48.1928 88.0119 52.4492Z" fill="#575A89"/>
<path d="M115.485 52.8655C116.492 53.9 119.912 54.241 121.192 54.9072C122.368 55.5191 123.67 55.8389 124.944 56.206C129.614 57.5533 134.056 59.5921 138.122 62.2546C138.967 62.749 139.714 63.3942 140.326 64.1583C141.043 65.1547 141.303 66.398 141.545 67.6009C142.172 70.7063 142.802 73.8491 142.661 77.014C142.512 80.3735 141.5 83.6272 140.496 86.8367L136.745 98.8289C133.945 107.78 131.127 116.82 130.34 126.166C129.904 131.345 130.097 136.559 130.917 141.692C130.999 142.208 131.068 142.8 130.727 143.196C130.48 143.44 130.155 143.59 129.809 143.619C127.998 143.902 126.246 142.979 124.606 142.162C119.593 139.667 114.242 137.916 108.723 136.965C110.88 133.848 112.544 130.418 113.657 126.795C114.289 124.495 114.786 122.16 115.147 119.802L116.892 109.709C117.532 106.009 118.173 102.298 118.389 98.5488C118.521 97.1432 118.439 95.7257 118.146 94.3447C117.812 93.0123 117.147 91.7913 116.552 90.5533C113.676 84.5713 112.327 77.7448 113.459 71.2047C113.954 68.3426 114.916 65.4766 114.515 62.5997C114.129 59.8338 114.53 57.6842 113.82 54.9469C110.906 43.7077 113.592 50.9194 115.485 52.8655Z" fill="#575A89"/>
<path d="M61.8378 78.3285C60.5268 81.0491 58.3349 83.3668 57.5889 86.2932C57.2987 87.6609 57.1743 89.0586 57.2185 90.456C57.2008 92.5622 57.1893 94.711 57.836 96.7155C58.2524 98.006 58.9298 99.1962 59.4178 100.461C60.098 102.229 60.4011 104.119 60.3075 106.011C60.1758 108.631 59.2855 111.175 59.2159 113.798C59.1065 117.923 61.0144 121.801 62.876 125.483C63.3446 124.323 64.061 123.279 64.9752 122.424C65.8894 121.57 66.9793 120.925 68.1685 120.536C69.3578 120.147 70.6178 120.022 71.8604 120.17C73.103 120.319 74.2981 120.737 75.3622 121.395C75.8533 120.942 75.9057 120.197 75.9249 119.529C76.0625 114.743 76.1953 109.958 76.3231 105.172C76.5246 97.7705 76.7166 90.2701 75.014 83.0643C74.2452 79.8108 73.0491 76.5699 70.8563 74.0465C69.7017 72.7178 65.782 69.2178 63.8866 70.7064C63.0343 71.3758 63.2335 73.1979 63.0984 74.1206C62.8946 75.5792 62.4695 76.9981 61.8378 78.3285Z" fill="#575A89"/>
<path d="M143.045 70.4885C143.665 72.4194 143.702 74.4826 143.714 76.5106C143.739 80.6476 143.685 84.7839 143.55 88.9198C143.481 91.0371 143.386 93.1835 142.744 95.2023C142.32 96.5337 141.667 97.7822 141.23 99.109C139.919 103.086 140.635 107.399 140.748 111.584C140.827 112.939 140.711 114.298 140.404 115.619C139.713 118.214 137.854 120.311 136.557 122.662C135.325 124.895 134.582 127.398 133.111 129.481C131.639 131.564 129.092 133.214 126.624 132.575C124.753 132.09 123.424 130.434 122.505 128.735C120.498 124.998 119.812 120.694 120.557 116.518C121.48 111.438 124.464 106.932 125.54 101.882C127.018 94.9478 124.772 87.7921 124.839 80.7024C124.809 79.591 124.959 78.4822 125.285 77.4193C125.85 75.7998 127.062 74.5066 128.182 73.2078C129.582 71.5847 130.882 69.8785 132.075 68.0985C132.877 66.9027 133.966 63.8273 135.387 63.5715C138.561 63.0006 142.257 68.0365 143.045 70.4885Z" fill="#575A89"/>
<path d="M45.3701 139.607C43.6151 139.166 41.8068 138.974 39.9983 139.036C38.0982 139.141 36.2421 139.649 34.5537 140.527C32.8652 141.405 31.3829 142.632 30.2055 144.128C29.028 145.623 28.1824 147.351 27.7247 149.198C27.267 151.046 27.2079 152.969 27.5511 154.841C27.9248 156.878 28.7642 158.799 29.6797 160.658C31.1043 163.549 32.8129 166.433 35.4502 168.286C36.993 169.369 38.7786 170.045 40.5429 170.71L54.4331 175.942C56.4765 176.712 58.5202 177.482 60.5838 178.196C70.9513 181.779 81.7601 183.928 92.7099 184.583C96.0452 184.781 99.4309 184.837 102.685 184.077C103.457 183.897 104.28 183.628 104.728 182.974C104.992 182.512 105.148 181.997 105.184 181.466L106.039 175.482C106.159 174.64 106.275 173.753 105.966 172.96C105.574 171.954 104.593 171.322 103.657 170.784C94.5254 165.539 83.863 162.646 76.1766 155.447C74.3671 153.753 72.8528 151.067 70.6543 149.915C68.1612 148.61 65.2251 147.865 62.6482 146.662C57.0146 144.032 51.4758 141.011 45.3701 139.607Z" fill="#2F2E41"/>
<path opacity="0.1" d="M59.2375 147.674C64.1471 149.212 84.8754 159.871 88.4283 163.592C87.9521 163.763 71.794 154.708 71.3091 154.563C66.9019 153.24 62.4702 151.909 58.2849 149.973C57.4429 149.583 52.815 147.753 53.0245 146.691C53.261 145.492 58.3659 147.401 59.2375 147.674Z" fill="black"/>
<path d="M120.488 187.686C120.766 187.706 121.043 187.625 121.266 187.457C121.364 187.331 121.436 187.187 121.478 187.034C121.519 186.88 121.53 186.719 121.509 186.561C121.502 183.844 121.494 181.127 121.486 178.409C119.142 177.293 116.52 176.935 113.946 176.591L101.938 174.985C102.214 175.022 100.06 180.158 100.39 180.843C100.972 182.052 105.42 183.123 106.675 183.693C111.039 185.676 115.573 187.857 120.488 187.686Z" fill="#A0616A"/>
<path d="M82.8108 178.381C80.5434 178.742 78.0128 179.062 76.5444 180.827C74.6823 183.065 75.475 186.402 76.3633 189.174C76.4953 189.735 76.7602 190.256 77.1357 190.693C77.7419 191.291 78.6709 191.379 79.5207 191.433C81.5885 191.564 83.789 191.666 85.5957 190.652C86.4513 190.172 87.1584 189.47 87.9556 188.898C89.2879 188.011 90.7524 187.342 92.2945 186.914C95.1294 186.022 98.0476 185.421 101.004 185.119C102.163 185.001 103.345 184.925 104.435 184.514C105.525 184.104 106.535 183.29 106.851 182.168C107.27 180.687 106.409 179.177 105.583 177.878C104.554 176.259 103.465 174.555 101.931 173.364C99.6933 171.626 98.5864 172.96 96.3325 174.072C92.0665 176.178 87.5084 177.63 82.8108 178.381V178.381Z" fill="#A0616A"/>
<path d="M76.8855 180.424L62.4887 176.168C60.7378 175.651 58.957 175.129 57.1312 175.13C55.3054 175.132 53.3951 175.73 52.211 177.12C51.0946 178.43 50.7751 180.221 50.4968 181.92L49.9015 185.553C49.5989 187.4 49.2958 189.282 49.5681 191.133C49.8404 192.985 50.7855 194.834 52.4282 195.731C54.4204 196.817 56.8622 196.287 59.0856 195.832C63.5768 194.914 68.145 194.424 72.7287 194.369C74.4519 194.348 76.2594 194.37 77.7821 193.563C79.5921 192.604 80.675 190.575 80.8612 188.535C81.1445 185.431 80.1099 181.377 76.8855 180.424Z" fill="#2F2E41"/>
<path d="M126.147 176.715C128.013 176.388 129.66 175.328 131.449 174.702C133.966 173.82 136.694 173.82 139.361 173.83C140.34 173.834 141.382 173.856 142.197 174.398C143.372 175.18 143.673 176.745 143.873 178.142C144.275 180.952 144.676 183.762 145.078 186.572C145.305 188.157 145.53 189.785 145.177 191.347C144.823 192.909 143.758 194.415 142.208 194.818C140.326 195.307 138.48 194.105 136.703 193.315C132.26 191.34 127.095 191.845 122.463 190.369C121.603 190.095 120.683 189.676 120.332 188.845C120.174 188.377 120.117 187.88 120.166 187.389C120.245 184.679 119.674 180.979 120.49 178.39C121.223 176.061 124.064 176.715 126.147 176.715Z" fill="#2F2E41"/>
<path d="M156.614 136.214C159.49 135.493 162.472 135.289 165.42 135.613C167.775 135.872 170.201 136.527 171.92 138.157C174.012 140.14 174.684 143.208 174.74 146.09C174.832 151.831 172.928 157.426 169.353 161.919C168.48 163.056 167.442 164.055 166.273 164.884C165.012 165.673 163.668 166.321 162.266 166.816L131.159 179.085C122.976 182.313 114.763 185.55 106.228 187.678C105.994 187.79 105.741 187.855 105.482 187.868C105.223 187.882 104.964 187.843 104.721 187.755C104.477 187.666 104.254 187.53 104.063 187.354C103.873 187.178 103.72 186.966 103.613 186.73C100.888 182.837 98.6013 178.654 96.7955 174.259C96.71 174.154 96.6509 174.031 96.6232 173.898C96.5956 173.766 96.6002 173.629 96.6366 173.499C96.673 173.369 96.7402 173.25 96.8326 173.152C96.9249 173.053 97.0395 172.978 97.1669 172.933L119.169 160.292C120.745 159.386 122.338 158.468 123.647 157.206C124.598 156.285 125.376 155.201 125.946 154.006C126.402 153.053 126.445 150.805 127.027 150.101C127.598 149.412 129.549 149.357 130.45 149.085C131.721 148.696 132.965 148.226 134.176 147.677C139.097 145.475 143.48 142.276 148.198 139.698C150.844 138.185 153.672 137.014 156.614 136.214Z" fill="#2F2E41"/>
<path opacity="0.1" d="M144.14 145.655C140.361 148.494 135.466 151.104 131.72 154.018C130.441 155.012 109.127 166.995 108.825 168.587C112.32 169.176 134.585 153.6 137.77 152.046C140.956 150.492 143.78 148.3 146.578 146.124C147.291 145.57 150.313 143.903 148.266 143.284C147.113 142.935 144.992 145.088 144.14 145.655Z" fill="black"/>
<path d="M118.131 53.1406H84.9498C83.6018 53.1406 82.3089 53.6761 81.3557 54.6293C80.4024 55.5825 79.8669 56.8754 79.8669 58.2235V60.0848H79.5064V64.2474H79.8669V67.1613H79.5064V69.6589H79.8669V100.373C79.8669 101.721 80.4024 103.014 81.3557 103.967C82.3089 104.921 83.6018 105.456 84.9498 105.456H118.131C119.479 105.456 120.772 104.921 121.725 103.967C122.679 103.014 123.214 101.721 123.214 100.373V58.2235C123.214 56.8754 122.679 55.5825 121.725 54.6293C120.772 53.6761 119.479 53.1406 118.131 53.1406V53.1406Z" fill="#3F3D56"/>
<path d="M123.405 13.8791L106.575 5.06366L83.3346 8.67013L78.5263 29.9072L90.4959 29.4467L93.8398 21.6444V29.3182L99.3627 29.1057L102.568 16.6842L104.572 29.9072L124.206 29.5065L123.405 13.8791Z" fill="#2F2E41"/>
<path d="M66.2407 133.464C67.0722 134.705 68.0465 135.919 69.3821 136.589C71.051 137.426 73.111 137.276 74.7822 136.444C76.4391 135.556 77.7953 134.196 78.6794 132.537C80.5084 129.307 80.8872 125.442 80.6589 121.738C80.4307 118.033 79.6397 114.385 79.2896 110.69C79.0351 108.004 79.0144 105.301 78.9939 102.603C78.9896 102.036 78.9987 101.425 79.3337 100.968C79.7388 100.415 80.4805 100.262 81.1378 100.067C84.8292 98.9703 87.2795 95.5103 89.0361 92.0835C90.2091 89.7953 91.2291 87.2939 91.0029 84.7326C90.7767 82.1712 88.9356 79.5908 86.3775 79.3295C84.2686 79.1141 82.3214 80.4536 80.8001 81.93C76.9626 85.6777 74.4963 90.6066 73.7975 95.9249C73.4635 98.5292 73.5592 101.204 72.8508 103.733C71.3383 109.131 66.6061 112.441 64.2478 117.299C61.6492 122.651 63.0834 128.728 66.2407 133.464Z" fill="#A0616A"/>
<path d="M135.879 112.839C135.341 114.091 134.557 115.223 133.575 116.167C132.592 117.111 131.43 117.849 130.158 118.337C128.576 118.972 126.831 119.079 125.184 118.641C124.367 118.415 123.613 118.003 122.981 117.438C122.35 116.873 121.856 116.169 121.54 115.383C121.288 114.59 121.15 113.766 121.13 112.935C120.893 109.294 120.985 105.543 122.307 102.143C122.817 100.831 123.505 99.5876 123.907 98.2393C124.367 96.7015 124.44 95.0789 124.51 93.4755L124.945 83.5425C125.017 82.8214 124.967 82.0933 124.797 81.3887C124.364 79.9515 123.02 79.0175 121.788 78.1604C118.811 76.0904 115.87 73.6749 114.427 70.3486C113.986 69.3308 113.695 68.1994 113.919 67.1129C114.326 65.1405 116.316 63.8635 118.284 63.4333C119.571 63.1519 120.902 63.1339 122.196 63.3805C123.491 63.6271 124.722 64.1332 125.815 64.8683C126.909 65.6034 127.842 66.5523 128.56 67.6577C129.277 68.7632 129.763 70.0024 129.988 71.3007C130.183 72.4217 130.18 73.5667 130.294 74.6987C130.536 77.1 131.298 79.4147 131.775 81.7805C132.95 87.6081 132.341 93.632 133.502 99.4586C134.474 104.33 138.136 107.509 135.879 112.839Z" fill="#A0616A"/>
<path d="M101.985 75.4865C104.284 75.4865 106.147 73.6228 106.147 71.3238C106.147 69.0249 104.284 67.1612 101.985 67.1612C99.6858 67.1612 97.8221 69.0249 97.8221 71.3238C97.8221 73.6228 99.6858 75.4865 101.985 75.4865Z" fill="#D0CDE1"/>
</g>
<defs>
<clipPath id="clip0">
<rect width="274.734" height="222.278" fill="white"/>
</clipPath>
</defs>
</svg>
