<svg width="50" height="50" viewBox="0 0 50 50" fill="none" xmlns="http://www.w3.org/2000/svg">
<path d="M6.25 23.2954V26.7046C6.25 28.4305 4.85088 29.8296 3.125 29.8296C1.39912 29.8296 0 28.4305 0 26.7046V23.2954C0 21.5695 1.39912 20.1704 3.125 20.1704C4.85088 20.1704 6.25 21.5695 6.25 23.2954Z" fill="#0066D9"/>
<path d="M43.7513 23.3843C43.7504 23.3547 43.75 23.325 43.75 23.2954C43.75 21.5695 45.1491 20.1704 46.875 20.1704C48.6009 20.1704 50 21.5695 50 23.2954C50 23.3251 49.9996 23.3548 49.9987 23.3843H50V26.7934H49.9987C49.9519 28.4781 48.5712 29.8295 46.875 29.8295C45.1788 29.8295 43.7982 28.4781 43.7513 26.7934H43.75V23.3842H43.7513V23.3843Z" fill="#4285F4"/>
<path d="M17.0454 33.5227V36.9318C17.0454 38.6577 15.6464 40.0568 13.9204 40.0568C12.1944 40.0568 10.7954 38.6577 10.7954 36.9318V33.5226C10.7954 31.7968 12.1945 30.3976 13.9204 30.3976C15.6463 30.3976 17.0454 31.7968 17.0454 33.5226V33.5227ZM17.0454 13.0681V24.2187H17.0446C17.0069 25.9118 15.6226 27.2727 13.9204 27.2727C12.2183 27.2727 10.834 25.9118 10.7963 24.2187H10.7954V13.0681C10.7954 11.3422 12.1945 9.94312 13.9204 9.94312C15.6463 9.94312 17.0454 11.3422 17.0454 13.0681Z" fill="#EA4335"/>
<path d="M32.9546 16.4772C32.9546 18.2031 34.3536 19.6022 36.0796 19.6022C37.8056 19.6022 39.2046 18.2031 39.2046 16.4772V13.0681C39.2046 11.3422 37.8055 9.94312 36.0796 9.94312C34.3537 9.94312 32.9546 11.3422 32.9546 13.0681V16.4772Z" fill="#34A853"/>
<path d="M21.875 6.53418C21.875 8.25996 23.2741 9.65918 25 9.65918C26.7259 9.65918 28.125 8.25996 28.125 6.53418V3.125C28.125 1.39912 26.7259 0 25 0C23.2741 0 21.875 1.39912 21.875 3.125V6.53418ZM21.875 43.4658C21.875 41.74 23.2741 40.3408 25 40.3408C26.7259 40.3408 28.125 41.74 28.125 43.4658V46.875C28.125 48.6009 26.7259 50 25 50C23.2741 50 21.875 48.6009 21.875 46.875V43.4658Z" fill="#FAB908"/>
<path d="M32.9546 25.8523C32.9546 24.1264 34.3536 22.7273 36.0796 22.7273C37.8056 22.7273 39.2046 24.1264 39.2046 25.8523V36.9319C39.2046 38.6578 37.8055 40.0569 36.0796 40.0569C34.3537 40.0569 32.9546 38.6578 32.9546 36.9319V25.8523Z" fill="#34A853"/>
<path d="M28.125 15.9092V34.0908C28.125 35.8168 26.7259 37.2158 25 37.2158C23.2741 37.2158 21.875 35.8168 21.875 34.0908V15.9092C21.875 14.1832 23.2741 12.7842 25 12.7842C26.7259 12.7842 28.125 14.1832 28.125 15.9092Z" fill="#FAB908"/>
</svg>
