<svg width="50" height="50" viewBox="0 0 50 50" fill="none" xmlns="http://www.w3.org/2000/svg">
<path d="M25 0C11.1924 0 0 11.1924 0 25C0 38.8076 11.1924 50 25 50C38.8076 50 50 38.8076 50 25C50 11.1941 38.8076 0.0017059 25 0ZM36.4654 36.056C36.0167 36.7929 35.0563 37.0232 34.3228 36.5745C28.4527 32.987 21.0628 32.1767 12.361 34.1641C11.5217 34.3569 10.6858 33.8315 10.4947 32.9922C10.3019 32.1529 10.8257 31.317 11.6667 31.1259C21.189 28.9509 29.3586 29.8874 35.9485 33.9133C36.682 34.3654 36.9157 35.3224 36.4654 36.056ZM39.5241 29.2511C38.9594 30.1689 37.7584 30.4555 36.8424 29.8925C30.1245 25.7625 19.8789 24.5667 11.9311 26.9788C10.9007 27.291 9.81235 26.7093 9.49846 25.6807C9.18799 24.6503 9.7697 23.5636 10.7984 23.2497C19.8772 20.4947 31.1651 21.8287 38.8809 26.5711C39.7987 27.1358 40.0887 28.335 39.5241 29.2511ZM39.7868 22.1614C31.7281 17.3763 18.4357 16.9362 10.7421 19.2699C9.50699 19.6452 8.20027 18.9475 7.82668 17.7124C7.45309 16.4773 8.1491 15.1706 9.38588 14.7953C18.2173 12.1153 32.8966 12.6322 42.1733 18.1389C43.2839 18.799 43.6489 20.2337 42.9904 21.3425C42.3337 22.4548 40.8956 22.8216 39.7868 22.1614Z" fill="#2EBD59"/>
</svg>
