<svg width="40" height="40" viewBox="0 0 40 40" fill="none" xmlns="http://www.w3.org/2000/svg">
<rect width="40" height="40" rx="20" fill="white"/>
<path d="M28.2225 8C29.6285 8 30.7625 9.137 30.8295 10.475V32L28.1525 29.727L26.6825 28.389L25.0785 26.991L25.7485 29.196H11.7105C10.3085 29.196 9.1705 28.131 9.1705 26.72V10.48C9.1705 9.142 10.3105 8.003 11.7155 8.003H28.2155L28.2225 8ZM22.1045 13.683H22.0745L21.8725 13.883C23.9455 14.483 24.9485 15.42 24.9485 15.42C23.6125 14.752 22.4085 14.418 21.2045 14.283C20.3345 14.148 19.4645 14.219 18.7295 14.283H18.5295C18.0595 14.283 17.0595 14.483 15.7195 15.018C15.2525 15.221 14.9845 15.354 14.9845 15.354C14.9845 15.354 15.9865 14.352 18.1945 13.817L18.0595 13.682C18.0595 13.682 16.3875 13.618 14.5825 14.952C14.5825 14.952 12.7775 18.096 12.7775 21.972C12.7775 21.972 13.7775 23.712 16.5205 23.778C16.5205 23.778 16.9205 23.245 17.3255 22.776C15.7855 22.308 15.1855 21.372 15.1855 21.372C15.1855 21.372 15.3195 21.438 15.5205 21.572H15.5805C15.6105 21.572 15.6245 21.587 15.6405 21.602V21.608C15.6565 21.624 15.6705 21.638 15.7005 21.638C16.0305 21.774 16.3605 21.908 16.6305 22.038C17.0965 22.24 17.6955 22.441 18.4305 22.574C19.3605 22.709 20.4265 22.774 21.6405 22.574C22.2405 22.439 22.8405 22.307 23.4405 22.039C23.8305 21.839 24.3105 21.639 24.8375 21.302C24.8375 21.302 24.2375 22.238 22.6325 22.706C22.9625 23.172 23.4275 23.706 23.4275 23.706C26.1715 23.646 27.2375 21.906 27.2975 21.98C27.2975 18.11 25.4825 14.96 25.4825 14.96C23.8475 13.746 22.3175 13.7 22.0475 13.7L22.1035 13.68L22.1045 13.683ZM22.2725 18.096C22.9755 18.096 23.5425 18.696 23.5425 19.431C23.5425 20.171 22.9725 20.771 22.2725 20.771C21.5725 20.771 21.0025 20.171 21.0025 19.437C21.0045 18.697 21.5755 18.099 22.2725 18.099V18.096ZM17.7295 18.096C18.4295 18.096 18.9955 18.696 18.9955 19.431C18.9955 20.171 18.4255 20.771 17.7255 20.771C17.0255 20.771 16.4555 20.171 16.4555 19.437C16.4555 18.697 17.0255 18.099 17.7255 18.099L17.7295 18.096Z" fill="black"/>
</svg>
