<svg width="40" height="40" viewBox="0 0 40 40" fill="none" xmlns="http://www.w3.org/2000/svg">
<rect width="40" height="40" rx="20" fill="white"/>
<path d="M14.3254 20.7824H16.9561V31.6129C16.9561 31.8267 17.1294 32 17.3432 32H21.8038C22.0177 32 22.1909 31.8267 22.1909 31.6129V20.8334H25.2152C25.4119 20.8334 25.5773 20.6859 25.5998 20.4905L26.0591 16.5033C26.0717 16.3936 26.037 16.2837 25.9636 16.2014C25.8901 16.119 25.785 16.0719 25.6747 16.0719H22.1911V13.5725C22.1911 12.819 22.5968 12.437 23.397 12.437C23.511 12.437 25.6747 12.437 25.6747 12.437C25.8885 12.437 26.0617 12.2636 26.0617 12.0499V8.38996C26.0617 8.17613 25.8885 8.00286 25.6747 8.00286H22.5357C22.5135 8.00178 22.4644 8 22.3919 8C21.8473 8 19.9541 8.10692 18.4587 9.48266C16.8018 11.0072 17.0321 12.8326 17.0871 13.1491V16.0718H14.3254C14.1115 16.0718 13.9383 16.2451 13.9383 16.4589V20.3952C13.9383 20.6091 14.1115 20.7824 14.3254 20.7824Z" fill="#181818"/>
</svg>
