<svg width="292" height="292" viewBox="0 0 292 292" fill="none" xmlns="http://www.w3.org/2000/svg">
<path d="M145.659 0C226.099 0 291.319 65.219 291.319 145.66C291.319 226.101 226.1 291.319 145.66 291.319C65.22 291.319 0 226.1 0 145.66C0 65.22 65.21 0 145.659 0Z" fill="white"/>
<path d="M195.93 63.708H95.38C77.91 63.708 63.708 77.919 63.708 95.38V195.94C63.708 213.41 77.919 227.612 95.38 227.612H195.94C213.41 227.612 227.612 213.401 227.612 195.94V95.38C227.611 77.919 213.4 63.708 195.93 63.708ZM205.908 82.034L209.495 82.025V109.227L182.093 109.318L182.002 82.116C182.002 82.116 205.908 82.034 205.908 82.034ZM145.66 118.239C168.392 118.239 173.08 139.578 173.08 145.668C173.08 160.771 160.772 173.079 145.66 173.079C130.539 173.079 118.24 160.771 118.24 145.668C118.23 139.578 122.928 118.239 145.66 118.239ZM209.65 193.955C209.65 202.613 202.613 209.659 193.937 209.659H97.073C88.406 209.659 81.36 202.622 81.36 193.955V127.416H104.119C102.007 132.614 100.814 139.715 100.814 145.669C100.814 170.377 120.915 190.487 145.632 190.487C170.349 190.487 190.44 170.377 190.44 145.669C190.44 139.715 189.247 132.614 187.144 127.416H209.63V193.955H209.65Z" fill="black"/>
</svg>
