<svg width="40" height="40" viewBox="0 0 40 40" fill="none" xmlns="http://www.w3.org/2000/svg">
<rect width="40" height="40" rx="20" fill="white"/>
<path d="M22.1256 8C20.447 8 19.1998 9.63875 19.1998 11.51V14.75C16.9929 14.8887 14.9923 15.59 13.3731 16.7C12.7541 15.9837 11.9289 15.68 11.1224 15.68C10.2503 15.68 9.36252 16.0212 8.74672 16.85V16.88L8.72171 16.91C8.13091 17.795 7.89022 18.9762 8.04651 20.15C8.19031 21.2262 8.71546 22.3212 9.62197 23.03C9.61572 23.1387 9.59697 23.2475 9.59697 23.36C9.59697 25.8612 10.8567 28.0513 12.7479 29.57C14.6391 31.0887 17.1898 32 20 32C22.8102 32 25.3609 31.0887 27.2521 29.57C29.1433 28.0513 30.403 25.8612 30.403 23.36C30.403 23.2475 30.3843 23.1387 30.378 23.03C31.2845 22.3212 31.8097 21.2262 31.9535 20.15C32.1098 18.9762 31.8691 17.795 31.2783 16.91L31.2533 16.88C30.6375 16.0513 29.7497 15.68 28.8776 15.68C28.0711 15.68 27.2459 15.9837 26.6269 16.7C25.0077 15.59 23.0071 14.8887 20.8002 14.75V11.51C20.8002 10.5687 21.2472 9.92 22.1256 9.92C22.5414 9.92 23.0571 10.1563 23.8511 10.49C24.5263 10.775 25.4016 11.09 26.5269 11.18C26.7989 12.1175 27.5334 12.8 28.4025 12.8C29.5028 12.8 30.403 11.72 30.403 10.4C30.403 9.08 29.5028 8 28.4025 8C27.646 8 26.9927 8.51375 26.6519 9.26C25.6923 9.1925 24.9983 8.9525 24.3763 8.69C23.6542 8.38625 22.9884 8 22.1256 8ZM20 16.64C22.5226 16.64 24.7733 17.4725 26.3519 18.74C27.9304 20.0075 28.8026 21.635 28.8026 23.36C28.8026 25.085 27.9304 26.7125 26.3519 27.98C24.7733 29.2475 22.5226 30.08 20 30.08C17.4774 30.08 15.2267 29.2475 13.6481 27.98C12.0696 26.7125 11.1974 25.085 11.1974 23.36C11.1974 21.635 12.0696 20.0075 13.6481 18.74C15.2267 17.4725 17.4774 16.64 20 16.64ZM11.1224 17.6C11.4256 17.6 11.7257 17.69 11.9727 17.84C11.1037 18.7137 10.4285 19.7525 10.0221 20.9C9.81891 20.5925 9.697 20.225 9.64698 19.85C9.55946 19.205 9.71575 18.5375 9.97208 18.14C9.9752 18.1325 9.96895 18.1175 9.97208 18.11C10.2159 17.8025 10.6473 17.6 11.1224 17.6ZM28.8776 17.6C29.3527 17.6 29.7841 17.8025 30.0279 18.11C30.031 18.1137 30.0248 18.1362 30.0279 18.14C30.2843 18.5375 30.4405 19.205 30.353 19.85C30.303 20.225 30.1811 20.5925 29.9779 20.9C29.5715 19.7525 28.8963 18.7137 28.0273 17.84C28.2743 17.69 28.5744 17.6 28.8776 17.6ZM15.9988 19.52C15.1142 19.52 14.3984 20.3787 14.3984 21.44C14.3984 22.5013 15.1142 23.36 15.9988 23.36C16.8835 23.36 17.5993 22.5013 17.5993 21.44C17.5993 20.3787 16.8835 19.52 15.9988 19.52ZM24.0012 19.52C23.1165 19.52 22.4007 20.3787 22.4007 21.44C22.4007 22.5013 23.1165 23.36 24.0012 23.36C24.8858 23.36 25.6016 22.5013 25.6016 21.44C25.6016 20.3787 24.8858 19.52 24.0012 19.52ZM24.2012 24.83C23.2822 25.8538 21.738 26.51 20 26.51C18.262 26.51 16.7178 25.8463 15.7988 24.95C16.3114 26.615 17.9557 28.16 20 28.16C22.0443 28.16 23.6886 26.6225 24.2012 24.83Z" fill="black"/>
</svg>
