<svg width="40" height="40" viewBox="0 0 40 40" fill="none" xmlns="http://www.w3.org/2000/svg">
<rect width="40" height="40" rx="20" fill="white"/>
<path d="M31.4562 10.7698C31.0792 10.974 30.6915 11.1464 30.2954 11.2864C30.7643 10.6386 31.1219 9.87647 31.3401 9.04247C31.389 8.85553 31.3383 8.65091 31.2125 8.52862C31.0868 8.40627 30.9123 8.39161 30.774 8.49175C29.9328 9.10109 29.0253 9.53902 28.0737 9.79506C27.1152 8.65108 25.8133 8 24.4674 8C21.6265 8 19.3153 10.8229 19.3153 14.2927C19.3153 14.566 19.3294 14.8377 19.3575 15.1057C15.8322 14.7277 12.5548 12.6113 10.3042 9.23942C10.224 9.11924 10.1004 9.05443 9.97393 9.06686C9.84736 9.07894 9.7336 9.16613 9.66966 9.30016C9.21319 10.2568 8.97188 11.351 8.97188 12.4643C8.97188 13.9805 9.41508 15.4191 10.198 16.5433C9.95996 16.4426 9.72896 16.3168 9.50846 16.1673C9.3901 16.0868 9.24563 16.088 9.12802 16.1704C9.01036 16.2528 8.93658 16.4042 8.93344 16.5698C8.93288 16.5976 8.93288 16.6255 8.93288 16.6538C8.93288 18.9171 9.93019 20.9548 11.455 22.0654C11.324 22.0494 11.1931 22.0262 11.063 21.9959C10.9289 21.9646 10.7911 22.022 10.7006 22.1469C10.6101 22.2717 10.5801 22.4457 10.6218 22.6046C11.1862 24.7568 12.6393 26.3398 14.3959 26.8224C12.939 27.937 11.2728 28.5208 9.52379 28.5208C9.15882 28.5208 8.79179 28.4947 8.43258 28.4427C8.25413 28.4168 8.0835 28.5455 8.02271 28.7528C7.96191 28.9602 8.02636 29.1914 8.17815 29.3102C10.4251 31.0699 13.0232 32 15.6915 32C20.9369 32 24.2183 28.9788 26.0474 26.4443C28.3282 23.284 29.6362 19.101 29.6362 14.9679C29.6362 14.7952 29.634 14.6209 29.6297 14.447C30.5295 13.619 31.3042 12.6168 31.9347 11.465C32.0304 11.2901 32.0201 11.0589 31.9091 10.8979C31.7985 10.7366 31.6138 10.6845 31.4562 10.7698Z" fill="#181818"/>
</svg>
